<?xml version="1.0" encoding="UTF-8"?>
<svg version="1.1" xmlns="http://www.w3.org/2000/svg" width="512" height="512">
<path d="M0 0 C0.88534628 -0.00507454 1.77069257 -0.01014909 2.68286753 -0.0153774 C3.65133159 -0.01587516 4.61979566 -0.01637292 5.61760712 -0.01688576 C6.64978033 -0.02126801 7.68195354 -0.02565027 8.74540472 -0.03016531 C12.21513646 -0.04355385 15.68484279 -0.04973237 19.15459442 -0.0558567 C21.63814662 -0.06375772 24.12169766 -0.07202667 26.6052475 -0.08063698 C34.0668062 -0.10459575 41.52836071 -0.11978624 48.9899447 -0.13269705 C51.09879299 -0.13641083 53.20764063 -0.14038392 55.31648827 -0.14444971 C68.42223835 -0.1696909 81.52798952 -0.19173623 94.63375854 -0.20417786 C97.66837315 -0.20710739 100.70298771 -0.21006907 103.73760223 -0.21308327 C104.86891187 -0.21420234 104.86891187 -0.21420234 106.02307624 -0.21534403 C118.23005503 -0.22798703 130.43688781 -0.26119685 142.64379841 -0.3028851 C155.18712159 -0.34536965 167.73037017 -0.3688805 180.27376509 -0.37409842 C187.31202717 -0.37750544 194.3500612 -0.38917618 201.38825226 -0.42220116 C208.01372465 -0.45323916 214.63887279 -0.45858201 221.264431 -0.4468174 C223.69114538 -0.44659692 226.11787833 -0.45488039 228.54452896 -0.47247124 C244.24175732 -0.58003116 257.55658945 -0.30986626 269.5745163 11.13701439 C278.60813883 20.94971731 281.73751174 30.49491185 281.69477081 43.58386803 C281.69605245 45.01747776 281.69605245 45.01747776 281.69735998 46.48004931 C281.69900789 49.68448964 281.69350464 52.8888777 281.68804169 56.09331322 C281.68775964 58.38958803 281.68791789 60.68586292 281.68848419 62.98213768 C281.68877149 69.21925387 281.68288569 75.45635088 281.67591023 81.69346261 C281.66966543 88.21042741 281.669072 94.72739264 281.66788483 101.24435997 C281.66512834 112.18376063 281.65887912 123.1231542 281.64995575 134.0625515 C281.64077478 145.32947822 281.63369729 156.59640304 281.62944794 167.86333275 C281.62905385 168.90531728 281.62905385 168.90531728 281.62865181 169.968352 C281.62734675 173.45328742 281.62608305 176.93822285 281.6248399 180.42315829 C281.61447555 209.32778165 281.59679003 238.23239785 281.5745163 267.13701439 C282.60138298 267.33542679 282.60138298 267.33542679 283.64899445 267.53784752 C284.5481105 267.71406136 285.44722656 267.89027519 286.37358856 268.07182884 C287.26441635 268.24535378 288.15524414 268.41887871 289.07306671 268.59766197 C307.42157663 272.55389328 324.27636867 286.83997427 334.5745163 302.13701439 C347.43881334 322.87949334 351.5773557 346.37646931 346.0120163 370.19951439 C342.54785722 383.53891536 335.92184491 395.0478343 326.5745163 405.13701439 C325.91580536 405.86404564 325.25709442 406.59107689 324.57842255 407.34013939 C314.16382641 418.32051842 299.48035655 427.06213575 284.5745163 430.13701439 C283.5845163 430.13701439 282.5945163 430.13701439 281.5745163 430.13701439 C281.58117813 430.71615593 281.58783997 431.29529747 281.59470367 431.89198875 C281.66145323 437.95977244 281.70648013 444.02745056 281.73931122 450.09551048 C281.75432924 452.35531926 281.77474974 454.61509923 281.80083466 456.87480736 C281.83752624 460.13676153 281.85431305 463.39832786 281.86748505 466.66045189 C281.89071083 468.15794472 281.89071083 468.15794472 281.91440582 469.68568993 C281.91715331 481.32879155 278.49605819 491.77683976 270.4651413 500.40263939 C265.94241519 504.61345335 261.34007121 507.88432175 255.5745163 510.13701439 C254.75496271 510.47763436 253.93540913 510.81825434 253.09102058 511.16919613 C248.43250825 512.45131978 244.10082971 512.42323625 239.29091644 512.41116905 C238.25703438 512.41640573 237.22315233 512.42164241 236.15794051 512.42703778 C232.69438363 512.4420365 229.23097451 512.44274291 225.76738739 512.44341087 C223.28353883 512.45103253 220.79969262 512.45946004 218.3158493 512.46863365 C211.56766941 512.49058725 204.81954889 512.49940097 198.07134199 512.5044601 C193.85365171 512.50772139 189.63597051 512.51424654 185.41828537 512.52146149 C173.729197 512.5410244 162.04011707 512.55743001 150.35101128 512.56033802 C149.60346749 512.56052559 148.8559237 512.56071316 148.08572707 512.56090641 C146.5704178 512.56127265 145.05510853 512.56163635 143.53979926 512.56199753 C142.78764748 512.56218034 142.03549571 512.56236315 141.26055145 512.5625515 C140.50747603 512.56273205 139.75440062 512.5629126 138.97850473 512.56309862 C126.78457816 512.56663789 114.59082844 512.5936461 102.39696316 512.63104939 C89.86260828 512.66918774 77.32834101 512.68849591 64.79392684 512.68879753 C57.76241269 512.68938092 50.73110946 512.69779556 43.69964981 512.7267952 C37.08234362 512.75396212 30.46538109 512.75516698 23.84801483 512.73913956 C21.42452967 512.73732691 19.00102042 512.74399891 16.57758713 512.75995827 C0.89368678 512.85691357 -12.41864217 512.57333645 -24.4254837 501.13701439 C-33.45824219 491.32525003 -36.5693564 481.77333284 -36.58370209 468.69016075 C-36.58864006 467.73442093 -36.59357804 466.7786811 -36.59866565 465.79397947 C-36.61403106 462.58955991 -36.62239872 459.38516037 -36.63080597 456.18071556 C-36.64038524 453.88443895 -36.65039535 451.5881641 -36.66080475 449.2918911 C-36.68785453 443.05479405 -36.70886374 436.81768944 -36.72880673 430.58056617 C-36.75066579 424.06358633 -36.77805489 417.54662983 -36.80486298 411.02966881 C-36.84911581 400.09028182 -36.88995088 389.15088695 -36.92816925 378.21147728 C-36.96754124 366.94454069 -37.00897154 355.67761477 -37.05316925 344.41069603 C-37.05589352 343.71603968 -37.05861779 343.02138333 -37.06142462 342.30567678 C-37.07510438 338.82074122 -37.0888246 335.33580581 -37.10256493 331.85087049 C-37.21647706 302.94627425 -37.32322523 274.04165412 -37.4254837 245.13701439 C-38.51449982 244.80725609 -39.60351593 244.47749779 -40.72553253 244.13774681 C-42.17376223 243.69371689 -43.62191921 243.24944974 -45.07001495 242.80498314 C-45.78548492 242.58902489 -46.5009549 242.37306664 -47.23810577 242.15056419 C-68.15410503 235.70151432 -84.16237258 220.06874891 -94.4254837 201.13701439 C-104.41820255 180.71033975 -106.16085486 157.79410222 -99.20282745 136.09795189 C-91.94484527 115.64980719 -77.3210941 98.24152557 -57.79047394 88.6899929 C-43.85039096 82.13701439 -43.85039096 82.13701439 -36.4254837 82.13701439 C-36.43547646 81.26830208 -36.43547646 81.26830208 -36.44567108 80.38204002 C-36.51242064 74.31425634 -36.55744754 68.24657822 -36.59027863 62.1785183 C-36.60529665 59.91870952 -36.62571715 57.65892955 -36.65180206 55.39922142 C-36.68849365 52.13726725 -36.70528046 48.87570092 -36.71845245 45.61357689 C-36.73393631 44.61524834 -36.74942017 43.61691978 -36.76537323 42.58833885 C-36.76812237 30.9382186 -33.33114009 20.59703316 -25.3864212 11.90654564 C-18.33739863 5.26850848 -9.8984615 0.03021313 0 0 Z " fill="#F8F6F7" transform="translate(133.42548370361328,-0.13701438903808594)"/>
<path d="M0 0 C0.88534628 -0.00507454 1.77069257 -0.01014909 2.68286753 -0.0153774 C3.65133159 -0.01587516 4.61979566 -0.01637292 5.61760712 -0.01688576 C6.64978033 -0.02126801 7.68195354 -0.02565027 8.74540472 -0.03016531 C12.21513646 -0.04355385 15.68484279 -0.04973237 19.15459442 -0.0558567 C21.63814662 -0.06375772 24.12169766 -0.07202667 26.6052475 -0.08063698 C34.0668062 -0.10459575 41.52836071 -0.11978624 48.9899447 -0.13269705 C51.09879299 -0.13641083 53.20764063 -0.14038392 55.31648827 -0.14444971 C68.42223835 -0.1696909 81.52798952 -0.19173623 94.63375854 -0.20417786 C97.66837315 -0.20710739 100.70298771 -0.21006907 103.73760223 -0.21308327 C104.86891187 -0.21420234 104.86891187 -0.21420234 106.02307624 -0.21534403 C118.23005503 -0.22798703 130.43688781 -0.26119685 142.64379841 -0.3028851 C155.18712159 -0.34536965 167.73037017 -0.3688805 180.27376509 -0.37409842 C187.31202717 -0.37750544 194.3500612 -0.38917618 201.38825226 -0.42220116 C208.01372465 -0.45323916 214.63887279 -0.45858201 221.264431 -0.4468174 C223.69114538 -0.44659692 226.11787833 -0.45488039 228.54452896 -0.47247124 C244.24175732 -0.58003116 257.55658945 -0.30986626 269.5745163 11.13701439 C278.60813883 20.94971731 281.73751174 30.49491185 281.69477081 43.58386803 C281.69605245 45.01747776 281.69605245 45.01747776 281.69735998 46.48004931 C281.69900789 49.68448964 281.69350464 52.8888777 281.68804169 56.09331322 C281.68775964 58.38958803 281.68791789 60.68586292 281.68848419 62.98213768 C281.68877149 69.21925387 281.68288569 75.45635088 281.67591023 81.69346261 C281.66966543 88.21042741 281.669072 94.72739264 281.66788483 101.24435997 C281.66512834 112.18376063 281.65887912 123.1231542 281.64995575 134.0625515 C281.64077478 145.32947822 281.63369729 156.59640304 281.62944794 167.86333275 C281.62905385 168.90531728 281.62905385 168.90531728 281.62865181 169.968352 C281.62734675 173.45328742 281.62608305 176.93822285 281.6248399 180.42315829 C281.61447555 209.32778165 281.59679003 238.23239785 281.5745163 267.13701439 C282.60138298 267.33542679 282.60138298 267.33542679 283.64899445 267.53784752 C284.5481105 267.71406136 285.44722656 267.89027519 286.37358856 268.07182884 C287.26441635 268.24535378 288.15524414 268.41887871 289.07306671 268.59766197 C307.42157663 272.55389328 324.27636867 286.83997427 334.5745163 302.13701439 C347.43881334 322.87949334 351.5773557 346.37646931 346.0120163 370.19951439 C342.54785722 383.53891536 335.92184491 395.0478343 326.5745163 405.13701439 C325.91580536 405.86404564 325.25709442 406.59107689 324.57842255 407.34013939 C314.16382641 418.32051842 299.48035655 427.06213575 284.5745163 430.13701439 C283.5845163 430.13701439 282.5945163 430.13701439 281.5745163 430.13701439 C281.58117813 430.71615593 281.58783997 431.29529747 281.59470367 431.89198875 C281.66145323 437.95977244 281.70648013 444.02745056 281.73931122 450.09551048 C281.75432924 452.35531926 281.77474974 454.61509923 281.80083466 456.87480736 C281.83752624 460.13676153 281.85431305 463.39832786 281.86748505 466.66045189 C281.89071083 468.15794472 281.89071083 468.15794472 281.91440582 469.68568993 C281.91715331 481.32879155 278.49605819 491.77683976 270.4651413 500.40263939 C265.94241519 504.61345335 261.34007121 507.88432175 255.5745163 510.13701439 C254.75496271 510.47763436 253.93540913 510.81825434 253.09102058 511.16919613 C248.43250825 512.45131978 244.10082971 512.42323625 239.29091644 512.41116905 C238.25703438 512.41640573 237.22315233 512.42164241 236.15794051 512.42703778 C232.69438363 512.4420365 229.23097451 512.44274291 225.76738739 512.44341087 C223.28353883 512.45103253 220.79969262 512.45946004 218.3158493 512.46863365 C211.56766941 512.49058725 204.81954889 512.49940097 198.07134199 512.5044601 C193.85365171 512.50772139 189.63597051 512.51424654 185.41828537 512.52146149 C173.729197 512.5410244 162.04011707 512.55743001 150.35101128 512.56033802 C149.60346749 512.56052559 148.8559237 512.56071316 148.08572707 512.56090641 C146.5704178 512.56127265 145.05510853 512.56163635 143.53979926 512.56199753 C142.78764748 512.56218034 142.03549571 512.56236315 141.26055145 512.5625515 C140.50747603 512.56273205 139.75440062 512.5629126 138.97850473 512.56309862 C126.78457816 512.56663789 114.59082844 512.5936461 102.39696316 512.63104939 C89.86260828 512.66918774 77.32834101 512.68849591 64.79392684 512.68879753 C57.76241269 512.68938092 50.73110946 512.69779556 43.69964981 512.7267952 C37.08234362 512.75396212 30.46538109 512.75516698 23.84801483 512.73913956 C21.42452967 512.73732691 19.00102042 512.74399891 16.57758713 512.75995827 C0.89368678 512.85691357 -12.41864217 512.57333645 -24.4254837 501.13701439 C-33.45824219 491.32525003 -36.5693564 481.77333284 -36.58370209 468.69016075 C-36.58864006 467.73442093 -36.59357804 466.7786811 -36.59866565 465.79397947 C-36.61403106 462.58955991 -36.62239872 459.38516037 -36.63080597 456.18071556 C-36.64038524 453.88443895 -36.65039535 451.5881641 -36.66080475 449.2918911 C-36.68785453 443.05479405 -36.70886374 436.81768944 -36.72880673 430.58056617 C-36.75066579 424.06358633 -36.77805489 417.54662983 -36.80486298 411.02966881 C-36.84911581 400.09028182 -36.88995088 389.15088695 -36.92816925 378.21147728 C-36.96754124 366.94454069 -37.00897154 355.67761477 -37.05316925 344.41069603 C-37.05589352 343.71603968 -37.05861779 343.02138333 -37.06142462 342.30567678 C-37.07510438 338.82074122 -37.0888246 335.33580581 -37.10256493 331.85087049 C-37.21647706 302.94627425 -37.32322523 274.04165412 -37.4254837 245.13701439 C-38.51449982 244.80725609 -39.60351593 244.47749779 -40.72553253 244.13774681 C-42.17376223 243.69371689 -43.62191921 243.24944974 -45.07001495 242.80498314 C-45.78548492 242.58902489 -46.5009549 242.37306664 -47.23810577 242.15056419 C-68.15410503 235.70151432 -84.16237258 220.06874891 -94.4254837 201.13701439 C-104.41820255 180.71033975 -106.16085486 157.79410222 -99.20282745 136.09795189 C-91.94484527 115.64980719 -77.3210941 98.24152557 -57.79047394 88.6899929 C-43.85039096 82.13701439 -43.85039096 82.13701439 -36.4254837 82.13701439 C-36.43547646 81.26830208 -36.43547646 81.26830208 -36.44567108 80.38204002 C-36.51242064 74.31425634 -36.55744754 68.24657822 -36.59027863 62.1785183 C-36.60529665 59.91870952 -36.62571715 57.65892955 -36.65180206 55.39922142 C-36.68849365 52.13726725 -36.70528046 48.87570092 -36.71845245 45.61357689 C-36.73393631 44.61524834 -36.74942017 43.61691978 -36.76537323 42.58833885 C-36.76812237 30.9382186 -33.33114009 20.59703316 -25.3864212 11.90654564 C-18.33739863 5.26850848 -9.8984615 0.03021313 0 0 Z M-2.7379837 37.76201439 C-5.82883413 42.11210017 -5.55490548 45.67677741 -5.52313995 50.86357689 C-5.52172501 51.72639275 -5.52031006 52.5892086 -5.51885223 53.47817039 C-5.51324558 56.23948669 -5.50069198 59.00072251 -5.4879837 61.76201439 C-5.48296956 63.63180489 -5.4784065 65.50159665 -5.47431183 67.37138939 C-5.46327399 71.95996216 -5.4460049 76.54847462 -5.4254837 81.13701439 C-4.51661911 81.43820183 -4.51661911 81.43820183 -3.58939362 81.74547386 C-2.78813049 82.01164513 -1.98686737 82.27781639 -1.16132355 82.55205345 C0.02597855 82.94605339 0.02597855 82.94605339 1.23726654 83.34801292 C16.16279897 88.3865275 28.23899774 94.99073654 39.5745163 106.13701439 C40.27447723 106.8240847 40.97443817 107.51115501 41.69561005 108.21904564 C51.09049501 118.09008461 56.68850494 130.20462033 60.5745163 143.13701439 C60.82072723 143.92849876 61.06693817 144.71998314 61.32061005 145.53545189 C66.14700569 164.5081796 62.22877674 187.10658209 52.55059052 203.9153347 C50.37031707 207.42717123 48.00087256 210.79257737 45.5745163 214.13701439 C43.24577457 217.63012698 43.09316852 219.02709523 43.5745163 223.13701439 C45.10801783 225.39559228 45.10801783 225.39559228 47.32842255 227.26592064 C48.09992645 227.9910183 48.87143036 228.71611595 49.66631317 229.46318626 C50.4816452 230.20117455 51.29697723 230.93916283 52.1370163 231.69951439 C53.75577507 233.16543992 55.36199016 234.64537372 56.95342255 236.14092064 C58.02958832 237.11267235 58.02958832 237.11267235 59.12749481 238.1040554 C59.6050119 238.77493187 60.08252899 239.44580833 60.5745163 240.13701439 C60.2445163 241.78701439 59.9145163 243.43701439 59.5745163 245.13701439 C38.1245163 245.46701439 16.6745163 245.79701439 -5.4254837 246.13701439 C-5.49318961 274.96132668 -5.5484591 303.78557465 -5.58092022 332.60994625 C-5.58399972 335.2736728 -5.58710374 337.93739929 -5.59027863 340.60112572 C-5.59106556 341.26320602 -5.59185249 341.92528633 -5.59266327 342.60742968 C-5.6049023 352.65841127 -5.62596482 362.70935027 -5.65180206 372.7603054 C-5.68169261 384.42456359 -5.70105592 396.08878346 -5.70774919 407.75307888 C-5.711662 413.92990386 -5.72086581 420.10661924 -5.74267387 426.28340912 C-5.76303344 432.09702697 -5.76931851 437.91049005 -5.76480675 443.72414017 C-5.76563218 445.85784687 -5.77160088 447.99155873 -5.78310013 450.1252346 C-5.79803574 453.03943114 -5.7944332 455.95304409 -5.78624725 458.86725426 C-5.79498578 459.71065489 -5.8037243 460.55405552 -5.81272763 461.42301375 C-5.7681871 467.29338549 -4.91591143 472.31072745 -0.89032745 476.87920189 C4.60549746 480.95538916 7.88333023 481.28396636 14.62023163 481.27745628 C15.56917478 481.28042741 16.51811794 481.28339853 17.49581695 481.28645968 C20.69556145 481.29517476 23.89526866 481.2966573 27.09502411 481.2981472 C29.38112214 481.30277342 31.66721939 481.30779781 33.95331573 481.31319237 C40.17860795 481.32633795 46.40388937 481.33276561 52.62919331 481.33720303 C56.51581277 481.34013048 60.40242927 481.34423467 64.28904724 481.3487072 C75.04809359 481.36081965 85.80713606 481.3712003 96.56618881 481.37458229 C97.25506262 481.37480186 97.94393643 481.37502142 98.6536852 481.37524764 C99.34421912 481.37546592 100.03475305 481.3756842 100.74621224 481.37590909 C102.14552323 481.37635256 103.54483422 481.37679912 104.9441452 481.37724876 C105.63825358 481.37747019 106.33236196 481.37769162 107.04750392 481.37791976 C118.29187611 481.38186686 129.53618346 481.39931724 140.7805306 481.42260829 C152.32257493 481.44632309 163.86457749 481.45852625 175.40664744 481.45995021 C181.88800844 481.4609997 188.36927804 481.46693804 194.85061646 481.48476982 C200.94743324 481.50121663 207.04408961 481.50342244 213.14092064 481.49463081 C215.37986111 481.4938586 217.61881008 481.49822727 219.85772896 481.50808907 C222.91230044 481.52075536 225.96629922 481.51496045 229.02086639 481.50450706 C229.90861606 481.51256347 230.79636572 481.52061987 231.71101689 481.52892041 C237.44934189 481.48293641 241.77148541 480.63377587 246.21904755 476.67217064 C250.66083706 471.07165342 250.71928291 466.84075557 250.67217255 459.87138939 C250.67116547 459.1677224 250.67015839 458.4640554 250.66912079 457.73906517 C250.66390635 455.12169823 250.64994511 452.50435459 250.6370163 449.88701439 C250.6060788 441.10076439 250.6060788 441.10076439 250.5745163 432.13701439 C217.9045163 431.64201439 217.9045163 431.64201439 184.5745163 431.13701439 C185.69765477 423.27504506 185.69765477 423.27504506 189.4260788 419.91045189 C190.19436005 419.18857689 190.9626413 418.46670189 191.7542038 417.72295189 C192.96463348 416.62853783 192.96463348 416.62853783 194.1995163 415.51201439 C195.80914717 414.05519657 197.40625153 412.58438054 198.9885788 411.09795189 C199.6996579 410.45648216 200.410737 409.81501244 201.14336395 409.15410423 C202.85609638 407.19292315 202.85609638 407.19292315 202.38726044 404.53032494 C201.44477423 401.75495928 200.16890831 399.89923443 198.3870163 397.57451439 C185.57127812 379.75303799 180.34188367 357.92775623 183.07061005 336.18388939 C184.56130276 327.99771243 186.95221948 320.6189665 190.5745163 313.13701439 C191.01666473 312.21275658 191.45881317 311.28849876 191.91436005 310.33623314 C201.55184258 291.46171749 218.52606396 277.26686724 238.62114716 270.67461205 C239.41786835 270.41986107 240.21458954 270.16511009 241.0354538 269.90263939 C241.8606955 269.63338646 242.68593719 269.36413353 243.53618622 269.08672142 C245.54721371 268.43142644 247.56062327 267.78344919 249.5745163 267.13701439 C249.71142145 238.33778271 249.81758945 209.53858943 249.88090827 180.73909634 C249.88841242 177.33828789 249.89617837 173.93748008 249.90410614 170.53667259 C249.90568 169.85963921 249.90725387 169.18260583 249.90887542 168.48505629 C249.93497623 157.52568926 249.98227964 146.56651127 250.03743307 135.60725635 C250.09356226 124.36022669 250.12642413 113.11329139 250.13904727 101.86611468 C250.14687357 95.54942092 250.16528393 89.23315575 250.20889664 82.91659927 C250.24961191 76.97153842 250.26218717 71.02708286 250.25316238 65.08189583 C250.25481347 62.89978751 250.26675432 60.71765902 250.28974915 58.53567123 C250.31961856 55.55523554 250.31242119 52.57708274 250.2960434 49.59659386 C250.31352044 48.73373848 250.33099749 47.87088311 250.34900415 46.98188061 C250.26606451 41.39530258 248.95680789 38.5225949 245.09377444 34.47403151 C240.79998012 30.6952948 236.07643332 30.81789215 230.6057663 30.80107689 C229.4688736 30.79109169 229.4688736 30.79109169 228.30901337 30.78090477 C226.7121548 30.77081394 225.11525437 30.76608664 223.51836395 30.76640892 C221.08194738 30.76202775 218.64733252 30.72565225 216.21123505 30.68779564 C214.65525162 30.68192816 213.09925965 30.67795831 211.5432663 30.67607689 C210.81917572 30.66170586 210.09508514 30.64733482 209.34905243 30.63252831 C205.72110837 30.66515524 203.71341967 31.04852516 200.62554169 33.0156765 C198.25222272 35.47035671 197.87827463 36.72660369 197.5120163 40.07451439 C196.81332075 44.46723914 195.96113165 47.04068035 192.5745163 50.13701439 C188.94945123 51.89079028 186.04848794 52.39035278 182.04035187 52.40443993 C180.93989532 52.41296989 179.83943878 52.42149986 178.70563507 52.43028831 C177.50809097 52.42938194 176.31054688 52.42847557 175.07671356 52.42754173 C173.80790344 52.43425896 172.53909332 52.44097618 171.23183441 52.44789696 C167.75867852 52.46553129 164.28562123 52.47025118 160.8124249 52.47152853 C158.64091233 52.4729519 156.46942469 52.47722495 154.29791832 52.48252296 C146.7178196 52.5010132 139.13779112 52.50919465 131.55767059 52.50761986 C124.49855935 52.50641801 117.43975364 52.52753107 110.38071972 52.55910718 C104.31346946 52.58527714 98.24631897 52.59598689 92.17901272 52.59470904 C88.55814451 52.59419971 84.93754807 52.5998669 81.31673622 52.62106514 C77.27818341 52.64406498 73.24031381 52.63492237 69.20171356 52.62285423 C67.40843376 52.63971275 67.40843376 52.63971275 65.57892609 52.65691185 C59.30425676 52.60920118 55.27912839 52.47995659 50.5745163 48.13701439 C48.4089361 44.77663133 47.61198921 42.49925251 47.1995163 38.51201439 C46.87419478 35.06766795 46.87419478 35.06766795 44.54497528 32.95928001 C40.80071509 30.66231625 37.6853816 30.5592948 33.42217255 30.60576439 C32.64441971 30.60193748 31.86666687 30.59811058 31.06534576 30.59416771 C29.42556713 30.59145405 27.7857448 30.59877706 26.1460495 30.61553001 C23.64790627 30.63692114 21.15264791 30.61572764 18.65459442 30.59013939 C17.05628083 30.59278333 15.45796902 30.59790969 13.85967255 30.60576439 C13.11886948 30.59766747 12.37806641 30.58957054 11.61481476 30.58122826 C5.12613125 30.69741495 1.47645138 32.97806105 -2.7379837 37.76201439 Z " fill="#F58A97" transform="translate(133.42548370361328,-0.13701438903808594)"/>
<path d="M0 0 C0.33 0 0.66 0 1 0 C1.33 73.92 1.66 147.84 2 224 C10.25 224 18.5 224 27 224 C44.99250606 227.27136474 58.22553367 233.10902742 72 245 C72.68964844 245.59296875 73.37929688 246.1859375 74.08984375 246.796875 C89.57396209 261.14651338 97.98213163 282.87852298 98.97827148 303.65380859 C99.56718515 325.84043598 91.95687152 346.64092177 77 363 C76.01 364.09441406 76.01 364.09441406 75 365.2109375 C61.1879659 379.74698952 41.10570493 389.11198611 21.00251007 390.09796906 C18.78733682 390.14300727 16.57402753 390.15793403 14.35839844 390.16113281 C13.52338806 390.16609772 12.68837769 390.17106262 11.82806396 390.17617798 C9.0884924 390.19068789 6.34897853 390.1975792 3.609375 390.203125 C1.69842529 390.2088812 -0.21252442 390.21463887 -2.12347412 390.22039795 C-6.11780057 390.23087292 -10.11210708 390.23673995 -14.10644531 390.24023438 C-19.23016805 390.24574288 -24.35362823 390.26983545 -29.47726822 390.29820633 C-33.41828192 390.31679426 -37.35923149 390.32203602 -41.30028534 390.32357025 C-43.19017742 390.32660087 -45.08006827 390.33464312 -46.9699173 390.34775543 C-49.6054778 390.36475199 -52.24038398 390.36295271 -54.87597656 390.35644531 C-55.65835693 390.3656601 -56.4407373 390.37487488 -57.24682617 390.3843689 C-62.49528978 390.34363803 -62.49528978 390.34363803 -65.01223755 388.62994385 C-66 387 -66 387 -65.92822266 384.56445312 C-64.82452289 381.5151995 -63.53069448 380.15351697 -61.1484375 377.96875 C-59.99601562 376.87626953 -59.99601562 376.87626953 -58.8203125 375.76171875 C-57.18588902 374.25000758 -55.54784043 372.74220666 -53.90625 371.23828125 C-52.75769531 370.14580078 -52.75769531 370.14580078 -51.5859375 369.03125 C-50.8748584 368.37705078 -50.1637793 367.72285156 -49.43115234 367.04882812 C-47.72035894 365.05778511 -47.72035894 365.05778511 -48.18725586 362.38891602 C-49.13043364 359.61661366 -50.40720221 357.76014016 -52.1875 355.4375 C-65.00323818 337.6160236 -70.23263262 315.79074185 -67.50390625 294.046875 C-66.01321353 285.86069804 -63.62229682 278.48195212 -60 271 C-59.55785156 270.07574219 -59.11570312 269.15148437 -58.66015625 268.19921875 C-48.65173271 248.59823414 -30.79449901 233.93149967 -10 227 C-5.05 226.01 -5.05 226.01 0 225 C0 150.75 0 76.5 0 0 Z " fill="#AEE59D" transform="translate(383,42)"/>
<path d="M0 0 C0.88534628 -0.00507454 1.77069257 -0.01014909 2.68286753 -0.0153774 C3.65133159 -0.01587516 4.61979566 -0.01637292 5.61760712 -0.01688576 C6.64978033 -0.02126801 7.68195354 -0.02565027 8.74540472 -0.03016531 C12.21513646 -0.04355385 15.68484279 -0.04973237 19.15459442 -0.0558567 C21.63814662 -0.06375772 24.12169766 -0.07202667 26.6052475 -0.08063698 C34.0668062 -0.10459575 41.52836071 -0.11978624 48.9899447 -0.13269705 C51.09879299 -0.13641083 53.20764063 -0.14038392 55.31648827 -0.14444971 C68.42223835 -0.1696909 81.52798952 -0.19173623 94.63375854 -0.20417786 C97.66837315 -0.20710739 100.70298771 -0.21006907 103.73760223 -0.21308327 C104.86891187 -0.21420234 104.86891187 -0.21420234 106.02307624 -0.21534403 C118.23005503 -0.22798703 130.43688781 -0.26119685 142.64379841 -0.3028851 C155.18712159 -0.34536965 167.73037017 -0.3688805 180.27376509 -0.37409842 C187.31202717 -0.37750544 194.3500612 -0.38917618 201.38825226 -0.42220116 C208.01372465 -0.45323916 214.63887279 -0.45858201 221.264431 -0.4468174 C223.69114538 -0.44659692 226.11787833 -0.45488039 228.54452896 -0.47247124 C244.24175732 -0.58003116 257.55658945 -0.30986626 269.5745163 11.13701439 C278.60813883 20.94971731 281.73751174 30.49491185 281.69477081 43.58386803 C281.69605245 45.01747776 281.69605245 45.01747776 281.69735998 46.48004931 C281.69900789 49.68448964 281.69350464 52.8888777 281.68804169 56.09331322 C281.68775964 58.38958803 281.68791789 60.68586292 281.68848419 62.98213768 C281.68877149 69.21925387 281.68288569 75.45635088 281.67591023 81.69346261 C281.66966543 88.21042741 281.669072 94.72739264 281.66788483 101.24435997 C281.66512834 112.18376063 281.65887912 123.1231542 281.64995575 134.0625515 C281.64077478 145.32947822 281.63369729 156.59640304 281.62944794 167.86333275 C281.62905385 168.90531728 281.62905385 168.90531728 281.62865181 169.968352 C281.62734675 173.45328742 281.62608305 176.93822285 281.6248399 180.42315829 C281.61447555 209.32778178 281.59658895 238.23239758 281.5745163 267.13701439 C271.3445163 267.13701439 261.1145163 267.13701439 250.5745163 267.13701439 C250.57087067 264.33152092 250.56722504 261.52602745 250.56346893 258.63551903 C250.52819118 232.90774769 250.47316207 207.18007834 250.39659534 181.45239555 C250.3865779 178.08034185 250.37673377 174.70828766 250.36699677 171.33623314 C250.36408471 170.32926145 250.36408471 170.32926145 250.36111382 169.30194689 C250.33009388 158.43254099 250.3131132 147.56315619 250.30132207 136.69371437 C250.28891046 125.54040888 250.26111148 114.38720037 250.21990323 103.23396027 C250.19724549 96.96942811 250.18160821 90.70505415 250.18263245 84.44047737 C250.1833765 78.5454997 250.16552792 72.65087233 250.13334846 66.75598526 C250.12482159 64.59124473 250.12311834 62.42646503 250.12871361 60.26171494 C250.13533291 57.30753577 250.11748197 54.35447785 250.09349823 51.40041161 C250.10125865 50.54242529 250.10901906 49.68443897 250.11701465 48.80045307 C250.03986832 43.43809025 249.10828604 40.40881415 245.5745163 36.13701439 C240.97123081 32.0917029 236.67068297 31.96791353 230.76592255 31.93388939 C230.00279251 31.92818932 229.23966248 31.92248924 228.45340729 31.91661644 C226.84038933 31.90717798 225.22735218 31.90063704 223.61431122 31.89678001 C221.14953248 31.88706373 218.68558415 31.85602639 216.22100067 31.82451439 C214.65264624 31.81798496 213.08428586 31.81273425 211.51592255 31.80888939 C210.78039658 31.79654259 210.04487061 31.78419579 209.28705597 31.77147484 C206.10981562 31.78527916 203.91596175 31.94531202 201.11894989 33.5156765 C199.10732822 35.62746587 198.95927101 37.07570862 198.6370163 39.94951439 C197.77060222 45.15559899 196.44037713 47.54086478 192.5745163 51.13701439 C188.95763736 52.91195636 186.04837391 53.39035318 182.04035187 53.40443993 C180.93989532 53.41296989 179.83943878 53.42149986 178.70563507 53.43028831 C177.50809097 53.42938194 176.31054688 53.42847557 175.07671356 53.42754173 C173.80790344 53.43425896 172.53909332 53.44097618 171.23183441 53.44789696 C167.75867852 53.46553129 164.28562123 53.47025118 160.8124249 53.47152853 C158.64091233 53.4729519 156.46942469 53.47722495 154.29791832 53.48252296 C146.7178196 53.5010132 139.13779112 53.50919465 131.55767059 53.50761986 C124.49855935 53.50641801 117.43975364 53.52753107 110.38071972 53.55910718 C104.31346946 53.58527714 98.24631897 53.59598689 92.17901272 53.59470904 C88.55814451 53.59419971 84.93754807 53.5998669 81.31673622 53.62106514 C77.27818341 53.64406498 73.24031381 53.63492237 69.20171356 53.62285423 C67.40843376 53.63971275 67.40843376 53.63971275 65.57892609 53.65691185 C59.27552922 53.60898274 55.3420355 53.42489288 50.5745163 49.13701439 C47.21133479 45.55685343 46.91587359 42.20600978 46.29717255 37.47685814 C45.33413563 34.35870077 44.41991718 33.73534465 41.5745163 32.13701439 C38.81222572 31.83236352 36.28122382 31.69258296 33.5198288 31.70342064 C32.74066101 31.69817879 31.96149323 31.69293694 31.15871429 31.68753624 C29.51298461 31.68112361 27.86720904 31.68244325 26.22148895 31.69096947 C23.71462732 31.69946319 21.21005823 31.67073761 18.70342255 31.63896751 C17.10055864 31.63735481 15.49769073 31.63793435 13.8948288 31.64092064 C13.15088867 31.62968666 12.40694855 31.61845268 11.64046478 31.60687828 C6.4481554 31.67573602 3.50395284 32.7631528 -0.4254837 36.13701439 C-4.7091223 41.04986275 -5.02555238 45.02712634 -5.0348587 51.25420189 C-5.05139496 52.11135796 -5.06793121 52.96851402 -5.08496857 53.85164452 C-5.13330033 56.57184177 -5.15478608 59.2914806 -5.1754837 62.01201439 C-5.20365586 63.86360476 -5.23358502 65.71516928 -5.26532745 67.56670189 C-5.33905508 72.09009338 -5.38872 76.61317758 -5.4254837 81.13701439 C-6.04479767 81.13177757 -6.66411163 81.12654076 -7.30219269 81.12114525 C-10.15577903 81.10013366 -13.00934901 81.08727825 -15.8629837 81.07451439 C-16.83687042 81.06613548 -17.81075714 81.05775658 -18.81415558 81.04912376 C-19.7777298 81.04590111 -20.74130402 81.04267845 -21.73407745 81.03935814 C-22.60862579 81.03412132 -23.48317413 81.02888451 -24.38422394 81.023489 C-28.4260772 81.17436495 -32.41227279 81.64844627 -36.4254837 82.13701439 C-36.50201001 75.48425794 -36.55428221 68.83161646 -36.59027863 62.1785183 C-36.60529665 59.91870952 -36.62571715 57.65892955 -36.65180206 55.39922142 C-36.68849365 52.13726725 -36.70528046 48.87570092 -36.71845245 45.61357689 C-36.73393631 44.61524834 -36.74942017 43.61691978 -36.76537323 42.58833885 C-36.76812237 30.9382186 -33.33114009 20.59703316 -25.3864212 11.90654564 C-18.33739863 5.26850848 -9.8984615 0.03021313 0 0 Z " fill="#3D6D93" transform="translate(133.42548370361328,-0.13701438903808594)"/>
<path d="M0 0 C10.23 0.33 20.46 0.66 31 1 C31.00879936 5.14853294 31.00879936 5.14853294 31.01777649 9.38087463 C31.07440602 35.41161738 31.14746652 61.44227681 31.23571491 87.47293186 C31.24466654 90.13665823 31.25359392 92.80038465 31.26245117 95.46411133 C31.26465486 96.12619163 31.26685854 96.78827194 31.269129 97.47041529 C31.30229319 107.52136309 31.3267266 117.57230852 31.34643555 127.62329102 C31.36940097 139.28759929 31.40278282 150.95182315 31.44870156 162.61606449 C31.47265327 168.79285401 31.49136934 174.96955982 31.49761391 181.14639473 C31.50365585 186.96006959 31.52362385 192.77353019 31.55427551 198.58712578 C31.56306995 200.7208088 31.56677542 202.8545198 31.56500816 204.98822021 C31.56335651 207.90247466 31.58004593 210.81607513 31.60127258 213.73023987 C31.59642501 214.5736405 31.59157743 215.41704113 31.58658296 216.28599936 C31.65030003 221.59040634 32.49385098 225.29635689 35 230 C40.32492515 234.93529648 44.00066382 235.14724974 51.04571533 235.14044189 C51.99465849 235.14341302 52.94360164 235.14638414 53.92130065 235.1494453 C57.12104515 235.15816037 60.32075236 235.15964291 63.52050781 235.16113281 C65.80660584 235.16575903 68.09270309 235.17078342 70.37879944 235.17617798 C76.60409165 235.18932356 82.82937308 235.19575122 89.05467701 235.20018864 C92.94129648 235.20311609 96.82791297 235.20722028 100.71453094 235.21169281 C111.4735773 235.22380526 122.23261976 235.23418591 132.99167252 235.2375679 C133.68054632 235.23778747 134.36942013 235.23800703 135.0791689 235.23823325 C136.11496979 235.23856067 136.11496979 235.23856067 137.17169595 235.2388947 C138.57100693 235.23933817 139.97031792 235.23978473 141.36962891 235.24023438 C142.06373728 235.2404558 142.75784566 235.24067723 143.47298762 235.24090537 C154.71735981 235.24485247 165.96166716 235.26230285 177.20601431 235.2855939 C188.74805863 235.3093087 200.29006119 235.32151186 211.83213115 235.32293582 C218.31349214 235.32398531 224.79476175 235.32992365 231.27610016 235.34775543 C237.37291695 235.36420224 243.46957331 235.36640805 249.56640434 235.35761642 C251.80534481 235.35684421 254.04429378 235.36121288 256.28321266 235.37107468 C259.33778414 235.38374098 262.39178293 235.37794606 265.4463501 235.36749268 C266.33409976 235.37554908 267.22184943 235.38360548 268.1365006 235.39190602 C273.17622222 235.35152027 276.63269327 234.79339869 281 232 C286.11517312 226.60833103 286.16010607 221.90581739 286.31640625 214.734375 C286.33718735 213.94097717 286.35796844 213.14757935 286.37937927 212.33013916 C286.44459973 209.80351156 286.50363144 207.27678279 286.5625 204.75 C286.6057114 203.03384384 286.64932653 201.31769778 286.69335938 199.6015625 C286.80025283 195.40114454 286.90159729 191.20062511 287 187 C287.92897095 186.96241577 287.92897095 186.96241577 288.87670898 186.92407227 C291.73044888 186.80677342 294.58396441 186.68466414 297.4375 186.5625 C298.41138672 186.52318359 299.38527344 186.48386719 300.38867188 186.44335938 C301.8340332 186.38051758 301.8340332 186.38051758 303.30859375 186.31640625 C304.18314209 186.27974854 305.05769043 186.24309082 305.95874023 186.20532227 C309.98822235 185.93328289 313.98952166 185.47079724 318 185 C318.07652631 191.65275644 318.1287985 198.30539792 318.16479492 204.95849609 C318.17981295 207.21830487 318.20023345 209.47808484 318.22631836 211.73779297 C318.26300995 214.99974714 318.27979675 218.26131347 318.29296875 221.5234375 C318.30845261 222.52176605 318.32393646 223.5200946 318.33988953 224.54867554 C318.34263701 236.19177716 314.92154189 246.63982537 306.890625 255.265625 C302.36789889 259.47643896 297.76555491 262.74730736 292 265 C291.18044641 265.34061997 290.36089283 265.68123995 289.51650429 266.03218174 C284.85799195 267.31430539 280.52631342 267.28622186 275.71640015 267.27415466 C274.68251809 267.27939134 273.64863603 267.28462802 272.58342421 267.29002339 C269.11986734 267.30502211 265.65645821 267.30572852 262.19287109 267.30639648 C259.70902253 267.31401814 257.22517633 267.32244565 254.74133301 267.33161926 C247.99315311 267.35357286 241.2450326 267.36238659 234.4968257 267.36744571 C230.27913541 267.370707 226.06145421 267.37723215 221.84376907 267.3844471 C210.15468071 267.40401001 198.46560077 267.42041562 186.77649498 267.42332363 C186.02895119 267.4235112 185.28140741 267.42369877 184.51121078 267.42389202 C182.99590151 267.42425826 181.48059223 267.42462196 179.96528296 267.42498314 C179.21313119 267.42516595 178.46097941 267.42534876 177.68603516 267.42553711 C176.93295974 267.42571766 176.17988432 267.42589821 175.40398844 267.42608423 C163.21006186 267.4296235 151.01631214 267.45663171 138.82244687 267.494035 C126.28809198 267.53217335 113.75382471 267.55148152 101.21941054 267.55178314 C94.18789639 267.55236653 87.15659316 267.56078117 80.12513351 267.58978081 C73.50782732 267.61694773 66.89086479 267.61815259 60.27349854 267.60212517 C57.85001338 267.60031252 55.42650412 267.60698453 53.00307083 267.62294388 C37.31917048 267.71989918 24.00684153 267.43632206 12 256 C2.96637746 246.18729708 -0.16299545 236.64210254 -0.12025452 223.55314636 C-0.12110894 222.59740654 -0.12196337 221.64166671 -0.12284368 220.65696508 C-0.12449159 217.45252474 -0.11898834 214.24813669 -0.11352539 211.04370117 C-0.11324334 208.74742636 -0.11340159 206.45115146 -0.1139679 204.15487671 C-0.11425519 197.91776052 -0.10836939 191.68066351 -0.10139394 185.44355178 C-0.09514913 178.92658698 -0.09455571 172.40962175 -0.09336853 165.89265442 C-0.09061205 154.95325376 -0.08436282 144.01386019 -0.07543945 133.07446289 C-0.06625848 121.80753617 -0.059181 110.54061135 -0.05493164 99.27368164 C-0.05466892 98.57902529 -0.05440619 97.88436894 -0.05413551 97.16866239 C-0.05283046 93.68372697 -0.05156675 90.19879154 -0.05032361 86.7138561 C-0.03995925 57.80923261 -0.02207265 28.90461681 0 0 Z " fill="#3D6D93" transform="translate(97,245)"/>
<path d="M0 0 C4.76471746 -0.12508346 9.52844678 -0.21502373 14.29443359 -0.2746582 C15.91016317 -0.2995576 17.52578305 -0.33349066 19.14111328 -0.37719727 C32.08339126 -0.71820583 42.76300019 0.8001987 53.19140625 9.27734375 C60.59742676 16.33145832 66.61327265 25.5153823 67.09058011 35.98728526 C67.12620266 38.47434758 67.12837663 40.95954386 67.12025452 43.44685364 C67.12110894 44.40259346 67.12196337 45.35833329 67.12284368 46.34303492 C67.12449159 49.54747526 67.11898834 52.75186331 67.11352539 55.95629883 C67.11324334 58.25257364 67.11340159 60.54884854 67.1139679 62.84512329 C67.11425519 69.08223948 67.10836939 75.31933649 67.10139394 81.55644822 C67.09514913 88.07341302 67.09455571 94.59037825 67.09336853 101.10734558 C67.09061205 112.04674624 67.08436282 122.98613981 67.07543945 133.92553711 C67.06625848 145.19246383 67.059181 156.45938865 67.05493164 167.72631836 C67.05466892 168.42097471 67.05440619 169.11563106 67.05413551 169.83133761 C67.05283046 173.31627303 67.05156675 176.80120846 67.05032361 180.2861439 C67.03995925 209.19076739 67.02207265 238.09538319 67 267 C56.77 267 46.54 267 36 267 C35.99453156 262.70232353 35.99453156 262.70232353 35.98895264 258.31782532 C35.95362787 232.00507223 35.898541 205.69241041 35.82207905 179.37974485 C35.81206236 175.92658488 35.8022181 172.47342444 35.79248047 169.02026367 C35.7905391 168.3328417 35.78859772 167.64541972 35.78659752 166.93716677 C35.75563079 155.82676167 35.73861179 144.7163772 35.72680578 133.6059371 C35.71436652 122.19381414 35.68650797 110.78182347 35.64538693 99.36976308 C35.62279136 92.96472166 35.6070882 86.55983373 35.60811615 80.15474892 C35.60886386 74.11940143 35.59086768 68.08439302 35.55883217 62.0491333 C35.55035145 59.84056839 35.54857073 57.63196537 35.55419731 55.42339134 C35.59031597 39.05935595 34.88377039 24.7309507 23.22265625 12.0703125 C16.94633628 6.08919776 8.73935913 1.70859669 0 1 C0 0.67 0 0.34 0 0 Z " fill="#335E80" transform="translate(348,0)"/>
<path d="M0 0 C3.9374352 -0.05893685 7.87475427 -0.09390669 11.8125 -0.125 C13.46282227 -0.15013672 13.46282227 -0.15013672 15.14648438 -0.17578125 C36.46829751 -0.30157366 53.98306754 7.17319175 70 21 C71.03447266 21.88945312 71.03447266 21.88945312 72.08984375 22.796875 C87.57396209 37.14651338 95.98213163 58.87852298 96.97827148 79.65380859 C97.56718515 101.84043598 89.95687152 122.64092177 75 139 C74.01 140.09441406 74.01 140.09441406 73 141.2109375 C58.72973181 156.22924394 38.08679759 165.46714768 17.35961914 166.11352539 C16.09754639 166.10828857 14.83547363 166.10305176 13.53515625 166.09765625 C12.51789711 166.09553383 12.51789711 166.09553383 11.48008728 166.09336853 C9.34084422 166.08782745 7.20171075 166.07528653 5.0625 166.0625 C3.60091298 166.05747736 2.13932431 166.0529158 0.67773438 166.04882812 C-2.88154526 166.03787745 -6.44076191 166.02065445 -10 166 C-10 165.67 -10 165.34 -10 165 C-8.1128125 164.5978125 -8.1128125 164.5978125 -6.1875 164.1875 C16.83084623 159.02334476 37.55009354 148.46251174 50.75 128.125 C63.40531604 107.96403324 67.41480314 85.23212965 62.09765625 61.94140625 C56.59031828 40.82205387 43.06821575 23.18723674 24.453125 11.97265625 C16.25641783 7.2901482 8.1788647 4.18375311 -1 2 C-0.67 1.34 -0.34 0.68 0 0 Z " fill="#89DAA3" transform="translate(385,266)"/>
<path d="M0 0 C3.50417809 2.84151203 6.78449927 5.83669895 10 9 C10.7734375 9.76054688 11.546875 10.52109375 12.34375 11.3046875 C22.13793267 21.53491255 27.95227772 33.52944244 32 47 C32.24621094 47.79148438 32.49242187 48.58296875 32.74609375 49.3984375 C37.5724894 68.37116521 33.65426044 90.9695677 23.97607422 107.77832031 C21.79580078 111.29015685 19.42635627 114.65556298 17 118 C14.67125828 121.49311259 14.51865223 122.89008084 15 127 C16.53350154 129.25857789 16.53350154 129.25857789 18.75390625 131.12890625 C19.52541016 131.85400391 20.29691406 132.57910156 21.09179688 133.32617188 C21.90712891 134.06416016 22.72246094 134.80214844 23.5625 135.5625 C25.18125877 137.02842553 26.78747386 138.50835933 28.37890625 140.00390625 C29.45507202 140.97565796 29.45507202 140.97565796 30.55297852 141.96704102 C32 144 32 144 31.78881836 146.68725586 C31 149 31 149 30 150 C27.70848583 150.08790975 25.41427476 150.10694038 23.12109375 150.09765625 C22.09110008 150.09553383 22.09110008 150.09553383 21.04029846 150.09336853 C18.83932199 150.08775479 16.63844591 150.07520007 14.4375 150.0625 C12.94856917 150.05748676 11.45963676 150.05292355 9.97070312 150.04882812 C6.31376925 150.03778093 2.65689442 150.02050713 -1 150 C-0.76031494 149.09443359 -0.52062988 148.18886719 -0.27368164 147.25585938 C0.34053582 144.02160571 0.34053582 144.02160571 -1.44702148 141.85351562 C-2.16446533 141.21091797 -2.88190918 140.56832031 -3.62109375 139.90625 C-4.39130859 139.18566406 -5.16152344 138.46507812 -5.95507812 137.72265625 C-6.77427734 136.98917969 -7.59347656 136.25570312 -8.4375 135.5 C-10.05376053 134.04600436 -11.65728828 132.57769697 -13.24609375 131.09375 C-13.96466553 130.45115234 -14.6832373 129.80855469 -15.42358398 129.14648438 C-17.54059005 126.26392014 -17.42669703 124.50174874 -17 121 C-15.51780714 118.48746726 -14.0408784 116.26261673 -12.3125 113.9375 C-7.63507002 107.26728483 -4.38846064 100.83742026 -2 93 C-1.80680176 92.38012207 -1.61360352 91.76024414 -1.41455078 91.12158203 C5.09351873 69.78042674 2.67659926 47.44093594 -7.64990234 27.64892578 C-12.00941903 19.71796728 -17.58271472 13.33222553 -24 7 C-24.67933594 6.32195312 -25.35867187 5.64390625 -26.05859375 4.9453125 C-35.20882458 -3.61519451 -46.22798943 -8.19476172 -58 -12 C-60.00022874 -12.66598005 -62.00030227 -13.33242719 -64 -14 C-64 -14.33 -64 -14.66 -64 -15 C-41.39773735 -18.61170176 -18.46116081 -13.79639583 0 0 Z " fill="#EF7281" transform="translate(163,96)"/>
<path d="M0 0 C0.07652631 6.65275644 0.1287985 13.30539792 0.16479492 19.95849609 C0.17981295 22.21830487 0.20023345 24.47808484 0.22631836 26.73779297 C0.26300995 29.99974714 0.27979675 33.26131347 0.29296875 36.5234375 C0.30845261 37.52176605 0.32393646 38.5200946 0.33988953 39.54867554 C0.34263701 51.19177716 -3.07845811 61.63982537 -11.109375 70.265625 C-15.63210111 74.47643896 -20.23444509 77.74730736 -26 80 C-26.86165771 80.34224609 -27.72331543 80.68449219 -28.61108398 81.03710938 C-32.55044036 82.15639628 -36.18771757 82.25228463 -40.2421875 82.1953125 C-41.01055939 82.1924826 -41.77893127 82.18965271 -42.57058716 82.18673706 C-45.00555521 82.17561311 -47.44014462 82.1505236 -49.875 82.125 C-51.53384882 82.11496011 -53.19270346 82.10583603 -54.8515625 82.09765625 C-58.90118579 82.07569937 -62.95052887 82.04122406 -67 82 C-67 81.67 -67 81.34 -67 81 C-66.32195312 80.85304688 -65.64390625 80.70609375 -64.9453125 80.5546875 C-54.0796668 77.93609698 -45.47033104 73.30935385 -39 64 C-33.48662946 54.79149814 -31.71881315 46.18997483 -31.5859375 35.59375 C-31.56657135 34.6284436 -31.5472052 33.66313721 -31.5272522 32.6685791 C-31.46789982 29.61247343 -31.42124962 26.55632918 -31.375 23.5 C-31.33677936 21.41665105 -31.2977253 19.33331722 -31.2578125 17.25 C-31.16223511 12.1667907 -31.07804187 7.08350753 -31 2 C-28.54504395 1.89831543 -28.54504395 1.89831543 -26.09008789 1.79663086 C-24.64087448 1.73643265 -24.64087448 1.73643265 -23.16238403 1.67501831 C-21.1583746 1.59226699 -19.15428239 1.51151438 -17.15014648 1.43188477 C-11.45132478 1.18392757 -5.65852691 0 0 0 Z " fill="#335E80" transform="translate(415,430)"/>
<path d="M0 0 C1.16312714 -0.0087616 2.32625427 -0.01752319 3.52462769 -0.02655029 C7.36966242 -0.04855811 11.21354731 -0.03398492 15.05859375 -0.01708984 C17.72991365 -0.02045755 20.40119861 -0.02530207 23.07250977 -0.03158569 C28.67118794 -0.04067526 34.26953604 -0.02871298 39.86816406 -0.00488281 C46.33554187 0.02232771 52.80213153 0.01351301 59.26949024 -0.01401484 C64.8280781 -0.0367251 70.38642906 -0.03989681 75.94504833 -0.02682149 C79.26243877 -0.01903723 82.57937875 -0.01992741 85.89675903 -0.03450394 C89.59577868 -0.04719007 93.29328099 -0.0278631 96.9921875 0 C98.08844452 -0.01012115 99.18470154 -0.02024231 100.31417847 -0.03067017 C107.71779839 0.07274782 107.71779839 0.07274782 111.67993164 2.9960022 C113.49609375 5.64697266 113.49609375 5.64697266 114.05859375 8.70947266 C113.3778786 12.26431846 112.29536916 13.42401866 109.49609375 15.64697266 C107.0634779 16.86328058 105.49108273 16.78343838 102.77153015 16.8008728 C101.77472229 16.80947327 100.77791443 16.81807373 99.75090027 16.82693481 C98.10436211 16.83332474 98.10436211 16.83332474 96.42456055 16.83984375 C94.69515732 16.85210999 94.69515732 16.85210999 92.93081665 16.86462402 C89.10232062 16.88950719 85.2738617 16.90600055 81.4453125 16.92041016 C80.14051249 16.92573383 78.83571247 16.93105751 77.49137306 16.93654251 C72.00888231 16.95817077 66.5263945 16.97690742 61.04387188 16.9881649 C53.18688222 17.00440413 45.3303871 17.03758089 37.47358388 17.09456575 C31.94909491 17.13326825 26.4247382 17.1527979 20.90011722 17.15808547 C17.60046534 17.16173868 14.30146206 17.17625177 11.00192833 17.2061882 C7.31950377 17.23769523 3.63833369 17.23789752 -0.04418945 17.23046875 C-1.68161858 17.25507675 -1.68161858 17.25507675 -3.35212708 17.28018188 C-10.73001634 17.21913063 -10.73001634 17.21913063 -14.68107605 14.29800415 C-16.50390625 11.64697266 -16.50390625 11.64697266 -17.12890625 8.64697266 C-15.20892237 -0.56894996 -7.73509827 -0.07141403 0 0 Z " fill="#DEDAEE" transform="translate(184.50390625,415.35302734375)"/>
<path d="M0 0 C1.73006035 -0.00832352 1.73006035 -0.00832352 3.49507141 -0.01681519 C7.3076837 -0.02862614 11.11911144 -0.00431927 14.93164062 0.02148438 C17.580543 0.02319514 20.2293986 0.0232333 22.8782959 0.0213623 C28.42991512 0.02141584 33.98119357 0.04114956 39.53271484 0.07324219 C45.94540999 0.11013362 52.35765888 0.11891741 58.7704463 0.11194468 C64.94653806 0.10563307 71.12247725 0.11640604 77.29853821 0.13591003 C79.92360182 0.14294529 82.54867893 0.14606393 85.17375183 0.1452179 C88.84134331 0.14701398 92.5082995 0.16838116 96.17578125 0.1953125 C97.26268753 0.1923819 98.34959381 0.18945129 99.46943665 0.18643188 C108.95840644 0.29402946 108.95840644 0.29402946 112.58789062 3.61523438 C113.53683153 7.09468435 113.95983777 9.46839735 112.83789062 12.92773438 C111.58789062 14.61523438 111.58789062 14.61523438 108.58789062 16.61523438 C106.35862923 16.87529659 106.35862923 16.87529659 103.70510864 16.88938904 C102.69851196 16.89936417 101.69191528 16.90933929 100.65481567 16.9196167 C99.5513681 16.92028137 98.44792053 16.92094604 97.31103516 16.92163086 C96.14820007 16.92995438 94.98536499 16.93827789 93.78729248 16.94685364 C89.93172894 16.97100864 86.07633438 16.97973238 82.22070312 16.98632812 C80.22214243 16.99302579 78.22358172 16.99972559 76.2250222 17.00676304 C69.93890758 17.02823798 63.65284697 17.03756951 57.36669922 17.04077148 C50.88465717 17.0444067 44.40308865 17.07430006 37.92119133 17.11617607 C32.3542033 17.15087908 26.78737218 17.16631992 21.22027671 17.16701752 C17.8960767 17.16781038 14.57246833 17.17891744 11.24835587 17.20501518 C7.53966074 17.23181497 3.83227707 17.22713672 0.12353516 17.21459961 C-1.52556351 17.23685104 -1.52556351 17.23685104 -3.20797729 17.259552 C-10.63670691 17.18789734 -10.63670691 17.18789734 -14.59402466 14.26527405 C-16.41210938 11.61523438 -16.41210938 11.61523438 -17.03710938 8.61523438 C-15.12263056 -0.57426393 -7.7147387 -0.09414102 0 0 Z " fill="#DEDBEE" transform="translate(184.412109375,384.384765625)"/>
<path d="M0 0 C1.01783066 -0.00990463 2.03566132 -0.01980927 3.08433533 -0.03001404 C4.19510941 -0.02551239 5.30588348 -0.02101074 6.45031738 -0.01637268 C8.21182884 -0.02666756 8.21182884 -0.02666756 10.00892639 -0.03717041 C13.22591184 -0.05233355 16.44253406 -0.05393315 19.65954018 -0.04822803 C22.34602366 -0.04513706 25.0324547 -0.05122747 27.71893072 -0.05726677 C34.05635793 -0.07131106 40.39365033 -0.06975118 46.7310791 -0.05836487 C53.26821013 -0.04687928 59.80493111 -0.06096649 66.34200811 -0.08776134 C71.95657157 -0.10991286 77.57100624 -0.11655714 83.18561029 -0.11068493 C86.53814166 -0.10731329 89.89041007 -0.10974385 93.24290466 -0.12693596 C96.98032383 -0.14176945 100.71683345 -0.13122416 104.45422363 -0.11402893 C106.12038475 -0.12853088 106.12038475 -0.12853088 107.82020569 -0.14332581 C108.83803635 -0.13349167 109.855867 -0.12365753 110.90454102 -0.11352539 C112.22966076 -0.11321146 112.22966076 -0.11321146 113.5815506 -0.1128912 C116.765757 0.55944558 117.96668889 1.85626965 119.95227051 4.38768005 C120.45227051 7.88768005 120.45227051 7.88768005 119.95227051 11.38768005 C117.967907 13.91594494 116.76329871 15.21431813 113.58434391 15.89383793 C112.26117239 15.89804831 112.26117239 15.89804831 110.91127014 15.90234375 C109.89488464 15.91506821 108.87849915 15.92779266 107.83131409 15.94090271 C106.16750954 15.93111389 106.16750954 15.93111389 104.47009277 15.92112732 C102.71099075 15.93405067 102.71099075 15.93405067 100.91635132 15.94723511 C97.70333677 15.96604622 94.4909719 15.96679011 91.27793241 15.95791364 C88.59401452 15.95280117 85.910189 15.96009842 83.22628063 15.96738571 C76.89356939 15.98438447 70.5610991 15.98081967 64.22839355 15.96409607 C57.69914242 15.94717617 51.1705599 15.96300663 44.6413818 15.99531895 C39.03187734 16.02202631 33.42258086 16.02928782 27.81301922 16.02080387 C24.46431734 16.01587762 21.1160177 16.01807288 17.76736641 16.03859138 C14.03236073 16.05598123 10.2987903 16.04153792 6.56384277 16.01878357 C5.45666397 16.03047577 4.34948517 16.04216797 3.20875549 16.05421448 C-4.24822074 15.96163226 -4.24822074 15.96163226 -8.26954651 13.07479858 C-10.04772949 10.38768005 -10.04772949 10.38768005 -10.11022949 6.76268005 C-8.39240567 1.30606322 -5.53634958 0.01522815 0 0 Z " fill="#DEDAEE" transform="translate(224.0477294921875,199.61231994628906)"/>
<path d="M0 0 C1.01783066 -0.00990463 2.03566132 -0.01980927 3.08433533 -0.03001404 C4.19510941 -0.02551239 5.30588348 -0.02101074 6.45031738 -0.01637268 C8.21182884 -0.02666756 8.21182884 -0.02666756 10.00892639 -0.03717041 C13.22591184 -0.05233355 16.44253406 -0.05393315 19.65954018 -0.04822803 C22.34602366 -0.04513706 25.0324547 -0.05122747 27.71893072 -0.05726677 C34.05635793 -0.07131106 40.39365033 -0.06975118 46.7310791 -0.05836487 C53.26821013 -0.04687928 59.80493111 -0.06096649 66.34200811 -0.08776134 C71.95657157 -0.10991286 77.57100624 -0.11655714 83.18561029 -0.11068493 C86.53814166 -0.10731329 89.89041007 -0.10974385 93.24290466 -0.12693596 C96.98032383 -0.14176945 100.71683345 -0.13122416 104.45422363 -0.11402893 C106.12038475 -0.12853088 106.12038475 -0.12853088 107.82020569 -0.14332581 C108.83803635 -0.13349167 109.855867 -0.12365753 110.90454102 -0.11352539 C112.22966076 -0.11321146 112.22966076 -0.11321146 113.5815506 -0.1128912 C116.765757 0.55944558 117.96668889 1.85626965 119.95227051 4.38768005 C120.45227051 7.88768005 120.45227051 7.88768005 119.95227051 11.38768005 C117.967907 13.91594494 116.76329871 15.21431813 113.58434391 15.89383793 C112.26117239 15.89804831 112.26117239 15.89804831 110.91127014 15.90234375 C109.89488464 15.91506821 108.87849915 15.92779266 107.83131409 15.94090271 C106.16750954 15.93111389 106.16750954 15.93111389 104.47009277 15.92112732 C102.71099075 15.93405067 102.71099075 15.93405067 100.91635132 15.94723511 C97.70333677 15.96604622 94.4909719 15.96679011 91.27793241 15.95791364 C88.59401452 15.95280117 85.910189 15.96009842 83.22628063 15.96738571 C76.89356939 15.98438447 70.5610991 15.98081967 64.22839355 15.96409607 C57.69914242 15.94717617 51.1705599 15.96300663 44.6413818 15.99531895 C39.03187734 16.02202631 33.42258086 16.02928782 27.81301922 16.02080387 C24.46431734 16.01587762 21.1160177 16.01807288 17.76736641 16.03859138 C14.03236073 16.05598123 10.2987903 16.04153792 6.56384277 16.01878357 C5.45666397 16.03047577 4.34948517 16.04216797 3.20875549 16.05421448 C-4.24822074 15.96163226 -4.24822074 15.96163226 -8.26954651 13.07479858 C-10.04772949 10.38768005 -10.04772949 10.38768005 -10.11022949 6.76268005 C-8.39240567 1.30606322 -5.53634958 0.01522815 0 0 Z " fill="#DEDAEE" transform="translate(224.0477294921875,230.61231994628906)"/>
<path d="M0 0 C0.8621814 -0.0071553 1.72436279 -0.01431061 2.6126709 -0.02168274 C3.56075119 -0.02437164 4.50883148 -0.02706055 5.48564148 -0.02983093 C6.48251984 -0.03640213 7.47939819 -0.04297333 8.50648499 -0.04974365 C11.8155372 -0.06950402 15.12454399 -0.08114494 18.43363953 -0.09111023 C20.12605805 -0.09722352 20.12605805 -0.09722352 21.85266685 -0.10346031 C27.82358493 -0.12433205 33.79447995 -0.13862939 39.76542664 -0.147995 C45.93952298 -0.15906587 52.11325954 -0.19347078 58.28722858 -0.23316669 C63.02869345 -0.25928366 67.77007193 -0.26768244 72.5116024 -0.27127647 C74.78781249 -0.27615461 77.06401842 -0.28780328 79.34015846 -0.30631447 C82.52436138 -0.33060225 85.70762474 -0.32975964 88.89189148 -0.32279968 C89.83389908 -0.33560974 90.77590668 -0.3484198 91.74645996 -0.36161804 C95.99863322 -0.32770473 98.27680889 -0.2271948 101.96578979 2.05154419 C104.02265194 4.29998526 104.56646469 5.14652249 104.50785828 8.14717102 C104.52719421 9.13717102 104.52719421 9.13717102 104.54692078 10.14717102 C103.46621872 13.40199132 101.78561345 14.3519683 98.88285828 16.14717102 C95.53950699 16.74322511 92.23676218 16.70398142 88.84770203 16.68061829 C87.84063202 16.68923386 86.83356201 16.69784943 85.79597473 16.70672607 C82.47050705 16.72940986 79.14588035 16.72264283 75.82035828 16.71357727 C73.50777434 16.71881151 71.19519255 16.72508725 68.88261414 16.73236084 C64.03721567 16.74276935 59.19211082 16.73819646 54.34672546 16.72358704 C48.13554205 16.7063931 41.92528314 16.72990065 35.71420288 16.76507664 C30.93923302 16.78702914 26.16448513 16.78561437 21.38948059 16.77731133 C19.09932948 16.77649075 16.80916225 16.78337438 14.51905823 16.79808235 C11.31813072 16.8154891 8.11887456 16.80101687 4.91801453 16.77827454 C3.97136932 16.78996674 3.02472412 16.80165894 2.0493927 16.81370544 C-2.49459067 16.74797079 -4.49166624 16.62214533 -8.20918274 13.7991333 C-10.11714172 11.14717102 -10.11714172 11.14717102 -10.67964172 8.08467102 C-9.99892657 4.52982521 -8.91641713 3.37012502 -6.11714172 1.14717102 C-3.82966241 0.00343137 -2.54287247 0.0144657 0 0 Z " fill="#DEDBEE" transform="translate(178.1171417236328,353.8528289794922)"/>
<path d="M0 0 C1.00707001 -0.00700928 2.01414001 -0.01401855 3.05172729 -0.02124023 C6.37721411 -0.03883055 9.70184843 -0.02719328 13.02734375 -0.01367188 C15.33992679 -0.01636648 17.65250873 -0.02024863 19.96508789 -0.02526855 C24.8104939 -0.03116503 29.65560486 -0.02259549 34.50097656 -0.00390625 C40.71205634 0.01888297 46.92244474 0.00576075 53.13349915 -0.01819611 C57.90845957 -0.03264979 62.68325607 -0.02804997 67.45822144 -0.01768494 C69.74836306 -0.01501648 72.03851956 -0.01829155 74.3286438 -0.02760315 C77.52939278 -0.03776124 80.72902193 -0.02227686 83.9296875 0 C85.3496553 -0.01214539 85.3496553 -0.01214539 86.79830933 -0.02453613 C90.99355338 0.02956052 93.37623328 0.17233589 97.05688477 2.33117676 C98.96484375 4.51757812 98.96484375 4.51757812 99.52734375 8.01757812 C98.96484375 11.51757812 98.96484375 11.51757812 97.56225586 13.70397949 C93.5294769 16.5197985 89.65106892 16.07526338 84.84375 16.03515625 C83.30169388 16.04567017 83.30169388 16.04567017 81.72848511 16.05639648 C78.32783048 16.07401202 74.92800695 16.06234056 71.52734375 16.04882812 C69.16609538 16.051522 66.80484809 16.05540355 64.44360352 16.0604248 C59.49387047 16.0663247 54.54442607 16.05774072 49.59472656 16.0390625 C43.24564133 16.0162731 36.89723241 16.02939349 30.548172 16.05335236 C25.67202648 16.0677968 20.79604168 16.06321047 15.91989136 16.05284119 C13.57868368 16.05017017 11.23746147 16.05345675 8.89627075 16.0627594 C5.6257657 16.07290229 2.35636049 16.05745437 -0.9140625 16.03515625 C-1.8845755 16.04325317 -2.8550885 16.0513501 -3.85501099 16.05969238 C-10.37690904 15.977188 -10.37690904 15.977188 -13.63256836 13.70397949 C-15.72271329 10.445791 -15.64250231 8.29662028 -15.03515625 4.51757812 C-10.70172988 -0.44825679 -6.13118643 -0.05244177 0 0 Z " fill="#DEDAEE" transform="translate(245.03515625,168.482421875)"/>
<path d="M0 0 C2.5625 2.125 2.5625 2.125 4 5 C3.93669753 8.16512361 3.54374114 10.12397261 1.875 12.8125 C-1.13823859 14.72088444 -3.45404442 15 -7 15 C-10 13 -10 13 -12 10 C-12 6.48044581 -11.63108355 4.15079941 -9.9375 1.0625 C-6.7235125 -0.70000928 -3.50343338 -0.74571072 0 0 Z " fill="#FCCDD2" transform="translate(87,156)"/>
<path d="M0 0 C2.9375 2.0625 2.9375 2.0625 5 5 C5.06641554 8.85210127 4.87229157 10.99848005 2.3125 13.9375 C-0.7058606 15.32431433 -2.70970079 15.4112874 -6 15 C-8.3125 13.875 -8.3125 13.875 -10 12 C-11.19308162 8.34121638 -11.32667744 6.70002308 -9.6875 3.1875 C-6.8817446 -0.44959033 -4.45840577 -0.52451833 0 0 Z " fill="#335E80" transform="translate(259,19)"/>
<path d="M0 0 C2.9375 2.0625 2.9375 2.0625 5 5 C5 8.51955419 4.63108355 10.84920059 2.9375 13.9375 C-0.25902171 15.69043126 -3.44932174 15.51780725 -7 15 C-9 14 -9 14 -10 12 C-10.75912409 5.16788321 -10.75912409 5.16788321 -8.375 1.5 C-5.23686002 -0.48198314 -3.65126535 -0.67064058 0 0 Z " fill="#D3EEC6" transform="translate(432,341)"/>
<path d="M0 0 C2.4375 1 2.4375 1 4 3 C4.6502362 6.54674293 4.69131398 9.73936863 2.9375 12.9375 C-0.15079941 14.63108355 -2.48044581 15 -6 15 C-9.46194162 12.56927503 -10.79395747 11.12178713 -11.5625 6.9375 C-11 4 -11 4 -9.4375 1.625 C-6.08716465 -0.6085569 -3.9518567 -0.49398209 0 0 Z " fill="#FCCED2" transform="translate(117,156)"/>
<path d="M0 0 C2.9375 2.0625 2.9375 2.0625 5 5 C5 8.54361243 4.65850044 10.86591591 2.875 13.9375 C-0.14771101 15.65036957 -2.60585305 15.35727863 -6 15 C-8.4375 14 -8.4375 14 -10 12 C-10.5659239 7.54334931 -10.82483134 5.26897129 -8.375 1.5 C-5.23686002 -0.48198314 -3.65126535 -0.67064058 0 0 Z " fill="#D3EEC6" transform="translate(401,341)"/>
<path d="M0 0 C2.9375 2.0625 2.9375 2.0625 5 5 C5 8.54361243 4.65850044 10.86591591 2.875 13.9375 C-0.18452459 15.6712306 -2.56817525 15.42145216 -6 15 C-8.4375 13.4375 -8.4375 13.4375 -10 11 C-10.56783945 7.02512383 -10.62340519 4.93510779 -8.375 1.5625 C-5.24316508 -0.49791771 -3.68455227 -0.6767545 0 0 Z " fill="#D4EEC6" transform="translate(370,341)"/>
<path d="M0 0 C2.4375 1.5625 2.4375 1.5625 4 4 C4.5625 7.5 4.5625 7.5 4 11 C1.9375 13.5 1.9375 13.5 -1 15 C-4.8137751 15 -7.02424548 14.84985071 -9.9375 12.3125 C-11.33817538 9.26397123 -11.4842732 7.32073048 -11 4 C-8.05899778 -0.47032338 -5.13105401 -0.73300772 0 0 Z " fill="#FCCFD3" transform="translate(148,156)"/>
</svg>
